/* XPM */
static char * minicalc_xpm[] = {
"32 32 385 2",
"  	c None",
". 	c #1C75AE",
"+ 	c #2D93AE",
"@ 	c #4BC3AE",
"# 	c #1F7AAF",
"$ 	c #1F7BB0",
"% 	c #3398AF",
"& 	c #55C8AD",
"* 	c #58C9AD",
"= 	c #217FB1",
"- 	c #2280B1",
"; 	c #2382B1",
"> 	c #399EB0",
", 	c #60CCAC",
"' 	c #62CDAC",
") 	c #65CEAC",
"! 	c #2484B2",
"~ 	c #2485B3",
"{ 	c #2587B3",
"] 	c #2688B3",
"^ 	c #3FA4B1",
"/ 	c #6BD1AB",
"( 	c #6DD2AB",
"_ 	c #6FD3AB",
": 	c #72D4AA",
"< 	c #2789B4",
"[ 	c #278BB4",
"} 	c #288CB4",
"| 	c #298DB5",
"1 	c #298FB5",
"2 	c #45AAB1",
"3 	c #75D5AA",
"4 	c #77D6AA",
"5 	c #79D7AA",
"6 	c #7BD8A9",
"7 	c #7FDAA9",
"8 	c #2A90B5",
"9 	c #2B91B6",
"0 	c #2B93B6",
"a 	c #2C94B6",
"b 	c #2D95B7",
"c 	c #4BB0B2",
"d 	c #80DAA9",
"e 	c #82DBA9",
"f 	c #84DCA9",
"g 	c #86DDA9",
"h 	c #88DDA8",
"i 	c #2D97B7",
"j 	c #2E98B7",
"k 	c #2F99B8",
"l 	c #309BB8",
"m 	c #309CB9",
"n 	c #51B6B3",
"o 	c #8BDFA8",
"p 	c #8CDFA8",
"q 	c #8EE0A8",
"r 	c #90E1A8",
"s 	c #92E2A7",
"t 	c #95E3A7",
"u 	c #2F9BB8",
"v 	c #319DB9",
"w 	c #329FBA",
"x 	c #32A0BA",
"y 	c #33A2BA",
"z 	c #34A3BB",
"A 	c #46B0B7",
"B 	c #8FDFA8",
"C 	c #97E4A7",
"D 	c #99E5A7",
"E 	c #9BE6A7",
"F 	c #9DE6A6",
"G 	c #9FE7A6",
"H 	c #A1E8A6",
"I 	c #319FBA",
"J 	c #34A4BB",
"K 	c #35A6BB",
"L 	c #36A7BC",
"M 	c #36A8BC",
"N 	c #37AABD",
"O 	c #4BB6B9",
"P 	c #99E4A8",
"Q 	c #A3E9A6",
"R 	c #A5EAA6",
"S 	c #A7EBA5",
"T 	c #A9ECA5",
"U 	c #ABECA5",
"V 	c #AEEEA5",
"W 	c #35A5BB",
"X 	c #37AABC",
"Y 	c #38ABBD",
"Z 	c #39ACBD",
"` 	c #39AEBE",
" .	c #3AAFBE",
"..	c #3BB1BE",
"+.	c #4FBDBA",
"@.	c #A3E8A7",
"#.	c #ACEDA5",
"$.	c #AFEFA5",
"%.	c #B1EFA4",
"&.	c #B3F0A4",
"*.	c #B5F1A4",
"=.	c #B7F2A4",
"-.	c #BAF3A4",
";.	c #37A9BC",
">.	c #3BB0BE",
",.	c #3BB2BF",
"'.	c #3CB3BF",
").	c #3DB5BF",
"!.	c #3EB6C0",
"~.	c #3EB7C0",
"{.	c #54C3BB",
"].	c #ADEDA6",
"^.	c #B6F1A4",
"/.	c #B8F2A4",
"(.	c #BCF4A4",
"_.	c #BDF4A3",
":.	c #BFF5A3",
"<.	c #C1F6A3",
"[.	c #C3F7A3",
"}.	c #DBD192",
"|.	c #3DB4BF",
"1.	c #3FB9C1",
"2.	c #40BAC1",
"3.	c #40BCC1",
"4.	c #41BDC2",
"5.	c #42BFC2",
"6.	c #59CABD",
"7.	c #B6F1A5",
"8.	c #C0F5A3",
"9.	c #C2F6A3",
"0.	c #C4F7A3",
"a.	c #C5F8A3",
"b.	c #C7F9A2",
"c.	c #C9FAA2",
"d.	c #DED392",
"e.	c #FF9376",
"f.	c #FF9776",
"g.	c #FF9D76",
"h.	c #3DB6C0",
"i.	c #42BEC2",
"j.	c #43C0C3",
"k.	c #43C1C3",
"l.	c #44C3C3",
"m.	c #45C4C4",
"n.	c #46C6C4",
"o.	c #5ED0BE",
"p.	c #C0F6A4",
"q.	c #CAFAA2",
"r.	c #CCFBA2",
"s.	c #CDFBA2",
"t.	c #CFFCA2",
"u.	c #E1D591",
"v.	c #FF9676",
"w.	c #FF9A76",
"x.	c #FF9E76",
"y.	c #FFA276",
"z.	c #FFA676",
"A.	c #40BBC1",
"B.	c #42C0C3",
"C.	c #46C7C4",
"D.	c #47C8C5",
"E.	c #48CAC5",
"F.	c #48CBC6",
"G.	c #49CCC6",
"H.	c #63D7C0",
"I.	c #C9FAA4",
"J.	c #D3FEA1",
"K.	c #D5FEA1",
"L.	c #E5D891",
"M.	c #FF9976",
"N.	c #FFA176",
"O.	c #FFA576",
"P.	c #FFA976",
"Q.	c #FFAC75",
"R.	c #FFB075",
"S.	c #FFB475",
"T.	c #42BFC3",
"U.	c #44C2C3",
"V.	c #45C5C4",
"W.	c #4ACEC6",
"X.	c #4BCFC7",
"Y.	c #4BD1C7",
"Z.	c #4CD2C8",
"`.	c #4DD4C8",
" +	c #67DDC1",
".+	c #CEFDA4",
"++	c #E5D991",
"@+	c #FF9C76",
"#+	c #FFA076",
"$+	c #FFA476",
"%+	c #FFA776",
"&+	c #FFAB75",
"*+	c #FFAF75",
"=+	c #FFB375",
"-+	c #FFB775",
";+	c #FFBB75",
">+	c #FFBE75",
",+	c #FFC375",
"'+	c #47C9C5",
")+	c #4ACFC7",
"!+	c #4DD5C9",
"~+	c #4ED7C9",
"{+	c #4FD8C9",
"]+	c #50DACA",
"^+	c #50DBCA",
"/+	c #98AB9C",
"(+	c #FD9974",
"_+	c #FFA376",
":+	c #FFAA75",
"<+	c #FFAE75",
"[+	c #FFB275",
"}+	c #FFB675",
"|+	c #FFB975",
"1+	c #FFBD75",
"2+	c #FFC175",
"3+	c #FFC574",
"4+	c #FFC974",
"5+	c #4ACDC6",
"6+	c #4BD0C7",
"7+	c #4DD3C8",
"8+	c #4DD5C8",
"9+	c #4ED6C9",
"0+	c #50D9CA",
"a+	c #51DCCA",
"b+	c #52DECB",
"c+	c #53DFCB",
"d+	c #85A3A3",
"e+	c #DB3F5B",
"f+	c #E5535B",
"g+	c #FDA373",
"h+	c #FFAD75",
"i+	c #FFB175",
"j+	c #FFB575",
"k+	c #FFB875",
"l+	c #FFBC75",
"m+	c #FFC075",
"n+	c #FFC475",
"o+	c #FFC774",
"p+	c #FFCB74",
"q+	c #FFCF74",
"r+	c #4FD9CA",
"s+	c #53E1CC",
"t+	c #54E2CC",
"u+	c #55E3CC",
"v+	c #84A6A6",
"w+	c #D63F62",
"x+	c #DF4055",
"y+	c #E85556",
"z+	c #FDAC72",
"A+	c #FFBF75",
"B+	c #FFC674",
"C+	c #FFCA74",
"D+	c #FFCE74",
"E+	c #FFD074",
"F+	c #4FD7C9",
"G+	c #52DDCB",
"H+	c #53E0CC",
"I+	c #55E5CD",
"J+	c #56E6CD",
"K+	c #57E8CE",
"L+	c #84A8AA",
"M+	c #D23E69",
"N+	c #D63F63",
"O+	c #DA3F5C",
"P+	c #DE4056",
"Q+	c #E2414F",
"R+	c #EA5851",
"S+	c #FEB672",
"T+	c #FFC275",
"U+	c #FFCD74",
"V+	c #52DFCB",
"W+	c #57E8CD",
"X+	c #58E9CE",
"Y+	c #58EACE",
"Z+	c #59ECCF",
"`+	c #83ABAE",
" @	c #CD3D71",
".@	c #D13E6A",
"+@	c #D53F64",
"@@	c #D93F5D",
"#@	c #DE4057",
"$@	c #E14050",
"%@	c #E6414A",
"&@	c #ED5A4D",
"*@	c #FEC071",
"=@	c #FFCC74",
"-@	c #54E1CC",
";@	c #55E4CD",
">@	c #57E7CD",
",@	c #5AEDCF",
"'@	c #5BEFD0",
")@	c #5BF0D0",
"!@	c #83ADB1",
"~@	c #C83D78",
"{@	c #D13E6B",
"]@	c #D93F5E",
"^@	c #DD4057",
"/@	c #E14051",
"(@	c #E5414A",
"_@	c #E94244",
":@	c #F26A4E",
"<@	c #57E9CE",
"[@	c #5BEFCF",
"}@	c #5CF2D0",
"|@	c #5DF3D1",
"1@	c #5EF4D1",
"2@	c #83B0B4",
"3@	c #C43C7F",
"4@	c #C83D79",
"5@	c #CC3D72",
"6@	c #D03E6C",
"7@	c #D43E65",
"8@	c #D83F5F",
"9@	c #DC4059",
"0@	c #E04052",
"a@	c #E4414C",
"b@	c #E84245",
"c@	c #5CF1D0",
"d@	c #5EF6D2",
"e@	c #5FF7D2",
"f@	c #60F9D2",
"g@	c #83B2B8",
"h@	c #BF3B86",
"i@	c #C33C80",
"j@	c #C73C7A",
"k@	c #CB3D73",
"l@	c #D03E6D",
"m@	c #D33E66",
"n@	c #D83F60",
"o@	c #DB3F5A",
"p@	c #DF4053",
"q@	c #5DF4D1",
"r@	c #5EF6D1",
"s@	c #61FAD3",
"t@	c #61FCD3",
"u@	c #62FDD4",
"v@	c #82B4BB",
"w@	c #BB3B8E",
"x@	c #BF3B87",
"y@	c #C33C81",
"z@	c #CB3D74",
"A@	c #CF3E6E",
"B@	c #D33E67",
"C@	c #D73F61",
"D@	c #60F8D2",
"E@	c #61FBD3",
"F@	c #63FED4",
"G@	c #63FFD4",
"H@	c #81B5BE",
"I@	c #B73A94",
"J@	c #BA3A8E",
"K@	c #BF3B88",
"L@	c #C23C82",
"M@	c #C73C7B",
"N@	c #CA3D75",
"O@	c #CE3D6F",
"P@	c #7FB5C1",
"Q@	c #B2399C",
"R@	c #B63A95",
"S@	c #BA3A8F",
"T@	c #BE3B89",
"U@	c #C53C7C",
"V@	c #7EB4C3",
"W@	c #AE39A2",
"X@	c #B53A96",
"Y@	c #B93A90",
"Z@	c #BD3B8A",
"`@	c #7CB4C6",
" #	c #A938A9",
".#	c #AD38A3",
"+#	c #B1399D",
"@#	c #B43A97",
"##	c #7BB4C8",
"$#	c #A537B0",
"%#	c #A938AA",
"&#	c #AC38A4",
"*#	c #B0399E",
"=#	c #79B4CB",
"-#	c #A137B7",
";#	c #A437B1",
">#	c #A838AB",
",#	c #818DCA",
"'#	c #9D36BE",
")#	c #A036B8",
"!#	c #9935C4",
". + @                                                           ",
"# $ % & *                                                       ",
"= - ; > , ' )                                                   ",
"! ~ { ] ^ / ( _ :                                               ",
"< [ } | 1 2 3 4 5 6 7                                           ",
"1 8 9 0 a b c d e f g h                                         ",
"a b i j k l m n o p q r s t                                     ",
"k u m v w x y z A B C D E F G H                                 ",
"I x y z J K L M N O P H Q R S T U V                             ",
"J W L M X Y Z `  ...+.@.#.V $.%.&.*.=.-.                        ",
";.Y Z `  .>.,.'.).!.~.{.].^./.-.(._.:.<.[.}.                    ",
" .>.,.'.|.!.~.1.2.3.4.5.6.7.8.9.0.a.b.c.d.e.f.g.                ",
"|.h.~.1.2.3.4.i.j.k.l.m.n.o.p.q.r.s.t.u.v.w.x.y.z.              ",
"2.A.4.i.B.k.l.m.n.C.D.E.F.G.H.I.J.K.L.M.g.N.O.P.Q.R.S.          ",
"T.k.U.m.V.C.D.E.F.G.W.X.Y.Z.`. +.+++@+#+$+%+&+*+=+-+;+>+,+      ",
"V.C.D.'+F.G.W.)+Y.Z.`.!+~+{+]+^+/+(+_+z.:+<+[+}+|+1+2+3+4+      ",
"F.G.5+)+6+Z.7+8+9+{+0+^+a+b+c+d+e+f+g+h+i+j+k+l+m+n+o+p+q+      ",
"6+Z.7+8+9+{+r+^+a+b+c+s+t+u+v+w+e+x+y+z+k+;+A+,+B+C+D+E+        ",
"9+F+r+]+a+G+c+H+t+u+I+J+K+L+M+N+O+P+Q+R+S+T+3+4+U+E+            ",
"a+G+V+H+t+u+I+J+W+X+Y+Z+`+ @.@+@@@#@$@%@&@*@=@q+                ",
"-@u+;@J+>@X+Y+Z+,@'@)@!@~@ @{@+@]@^@/@(@_@:@                    ",
">@<@Y+Z+,@[@)@}@|@1@2@3@4@5@6@7@8@9@0@a@b@                      ",
",@[@)@c@|@1@d@e@f@g@h@i@j@k@l@m@n@o@p@                          ",
"|@q@r@e@f@s@t@u@v@w@x@y@j@z@A@B@C@                              ",
"D@s@E@u@F@G@G@H@I@J@K@L@M@N@O@                                  ",
"F@G@G@G@G@G@P@Q@R@S@T@L@U@                                      ",
"G@G@G@G@G@V@W@Q@X@Y@Z@                                          ",
"G@G@G@G@`@ #.#+#@#                                              ",
"G@G@G@##$#%#&#*#                                                ",
"G@G@=#-#;#>#                                                    ",
"G@,#'#)#                                                        ",
"  !#                                                            "};
